<?xml version="1.0" encoding="UTF-8" standalone="no"?>
<!-- Created with Inkscape (http://www.inkscape.org/) -->

<svg
   xmlns:dc="http://purl.org/dc/elements/1.1/"
   xmlns:cc="http://creativecommons.org/ns#"
   xmlns:rdf="http://www.w3.org/1999/02/22-rdf-syntax-ns#"
   xmlns:svg="http://www.w3.org/2000/svg"
   xmlns="http://www.w3.org/2000/svg"
   xmlns:sodipodi="http://sodipodi.sourceforge.net/DTD/sodipodi-0.dtd"
   xmlns:inkscape="http://www.inkscape.org/namespaces/inkscape"
   width="710.40228"
   height="696.11658"
   id="svg3880"
   version="1.1"
   inkscape:version="0.48.4 r9939"
   sodipodi:docname="icon_orange.svg"
   inkscape:export-filename="C:\Users\kirpt2\OneDrive - PORIN KAUPUNKI\Documents\Programmieren\TyöaikaApp\images\icon_orange.png"
   inkscape:export-xdpi="300.08066"
   inkscape:export-ydpi="300.08066">
  <defs
     id="defs3" />
  <sodipodi:namedview
     inkscape:document-units="mm"
     id="base"
     pagecolor="#ffffff"
     bordercolor="#666666"
     borderopacity="1.0"
     inkscape:pageopacity="0.0"
     inkscape:pageshadow="2"
     inkscape:zoom="0.35"
     inkscape:cx="336.62972"
     inkscape:cy="358.05828"
     inkscape:current-layer="layer1"
     showgrid="false"
     units="mm"
     fit-margin-top="3"
     fit-margin-left="3"
     fit-margin-right="3"
     fit-margin-bottom="3"
     inkscape:window-width="1121"
     inkscape:window-height="751"
     inkscape:window-x="1105"
     inkscape:window-y="220"
     inkscape:window-maximized="0" />
  <metadata
     id="metadata4">
    <rdf:RDF>
      <cc:Work
         rdf:about="">
        <dc:format>image/svg+xml</dc:format>
        <dc:type
           rdf:resource="http://purl.org/dc/dcmitype/StillImage" />
        <dc:title></dc:title>
      </cc:Work>
    </rdf:RDF>
  </metadata>
  <g
     inkscape:groupmode="layer"
     id="layer3"
     inkscape:label="Layer"
     transform="translate(-13.370279,-194.30387)">
    <path
       sodipodi:type="arc"
       style="fill:#ff7f2a;fill-opacity:1;stroke:#ff7f2a;stroke-width:31.99960709;stroke-miterlimit:4;stroke-opacity:1;stroke-dasharray:none"
       id="path4437"
       sodipodi:cx="487.14285"
       sodipodi:cy="625.2193"
       sodipodi:rx="381.42856"
       sodipodi:ry="370"
       d="m 868.57141,625.2193 c 0,204.34536 -170.77138,370 -381.42856,370 -210.65717,0 -381.42856,-165.65464 -381.42856,-370 0,-204.34536 170.77139,-370 381.42856,-370 210.65718,0 381.42856,165.65464 381.42856,370 z"
       transform="matrix(0.86685204,0,0,0.87432238,-53.709355,-4.2810617)" />
  </g>
  <g
     inkscape:label="Layer 1"
     inkscape:groupmode="layer"
     id="layer1"
     transform="translate(-13.370279,-194.30387)">
    <path
       inkscape:connector-curvature="0"
       d="m 179.49997,433.46848 v 306.72734 a 42.774054,48.069929 0 0 0 42.64612,47.92619 h 289.99359 a 42.774054,48.069929 0 0 0 42.64611,-47.92619 V 433.46848"
       style="fill:none;stroke:#f9f9f9;stroke-width:22.74934959;stroke-linecap:round;stroke-linejoin:round;stroke-miterlimit:4;stroke-dasharray:none"
       id="path6" />
    <rect
       x="145.38306"
       y="328.03094"
       width="443.51956"
       height="95.852303"
       rx="29.85228"
       ry="33.548302"
       style="fill:none;stroke:#f9f9f9;stroke-width:22.74934959;stroke-linejoin:round;stroke-miterlimit:4;stroke-dasharray:none"
       id="rect8" />
    <path
       inkscape:connector-curvature="0"
       d="m 269.69904,513.73962 a 136.401,139.25456 0 0 0 -34.7739,91.45725 c -0.83895,77.19427 60.89522,140.66996 136.50766,140.81514 75.50579,0.14516 136.50765,-62.29981 136.50765,-139.36344 0,-75.88048 -59.40216,-137.62864 -133.30825,-139.36343 a 3.0998612,3.1647112 0 0 0 -3.1994,3.17197 v 60.70294"
       style="fill:none;stroke:#f9f9f9;stroke-width:22.98774147;stroke-linecap:round;stroke-linejoin:round;stroke-miterlimit:4;stroke-dasharray:none"
       id="path3031" />
    <path
       inkscape:connector-curvature="0"
       d="M 355.35049,623.07459 299.18328,541.0534 a 5.7802458,5.9011703 0 0 1 8.04826,-8.21664 l 80.34044,57.34225"
       id="path3033"
       style="fill:#f9f9f9;fill-opacity:1;stroke:#f9f9f9" />
  </g>
</svg>
